<svg width="20" height="20" viewBox="0 0 20 20" fill="none" xmlns="http://www.w3.org/2000/svg">
<g id="bag" clip-path="url(#clip0_6_323)">
<path id="Vector" d="M10.4166 1.25037C11.2454 1.25037 12.0403 1.57961 12.6263 2.16566C13.2124 2.75171 13.5416 3.54656 13.5416 4.37537V5.00037H7.29163V4.37537C7.29163 3.54656 7.62087 2.75171 8.20692 2.16566C8.79297 1.57961 9.58782 1.25037 10.4166 1.25037ZM14.7916 5.00037V4.37537C14.7916 3.21504 14.3307 2.10225 13.5102 1.28177C12.6897 0.461302 11.5769 0.000366211 10.4166 0.000366211C9.2563 0.000366211 8.14351 0.461302 7.32303 1.28177C6.50256 2.10225 6.04163 3.21504 6.04163 4.37537V5.00037H1.66663V17.5004C1.66663 18.1634 1.93002 18.7993 2.39886 19.2681C2.8677 19.737 3.50358 20.0004 4.16663 20.0004H16.6666C17.3297 20.0004 17.9656 19.737 18.4344 19.2681C18.9032 18.7993 19.1666 18.1634 19.1666 17.5004V5.00037H14.7916ZM2.91663 6.25037H17.9166V17.5004C17.9166 17.8319 17.7849 18.1498 17.5505 18.3842C17.3161 18.6187 16.9981 18.7504 16.6666 18.7504H4.16663C3.83511 18.7504 3.51716 18.6187 3.28274 18.3842C3.04832 18.1498 2.91663 17.8319 2.91663 17.5004V6.25037Z" fill="black"/>
</g>
<defs>
<clipPath id="clip0_6_323">
<rect width="20" height="20" fill="white" transform="translate(0 0.000366211)"/>
</clipPath>
</defs>
</svg>
