<svg width="70" height="70" viewBox="0 0 70 70" fill="none" xmlns="http://www.w3.org/2000/svg">
<g id="chevron-left">
<path id="Vector" fill-rule="evenodd" clip-rule="evenodd" d="M50.4069 6.47599C50.6106 6.67919 50.7722 6.92059 50.8825 7.18635C50.9927 7.45211 51.0495 7.73701 51.0495 8.02474C51.0495 8.31247 50.9927 8.59738 50.8825 8.86314C50.7722 9.1289 50.6106 9.37029 50.4069 9.57349L25.7012 34.2747L50.4069 58.976C50.8176 59.3867 51.0484 59.9438 51.0484 60.5247C51.0484 61.1056 50.8176 61.6627 50.4069 62.0735C49.9961 62.4842 49.439 62.715 48.8581 62.715C48.2772 62.715 47.7201 62.4842 47.3093 62.0735L21.0593 35.8235C20.8556 35.6203 20.694 35.3789 20.5837 35.1131C20.4734 34.8474 20.4167 34.5625 20.4167 34.2747C20.4167 33.987 20.4734 33.7021 20.5837 33.4363C20.694 33.1706 20.8556 32.9292 21.0593 32.726L47.3093 6.47599C47.5125 6.27228 47.7539 6.11065 48.0197 6.00038C48.2855 5.8901 48.5704 5.83333 48.8581 5.83333C49.1458 5.83333 49.4307 5.8901 49.6965 6.00038C49.9623 6.11065 50.2036 6.27228 50.4069 6.47599Z" fill="#EAEAEA"/>
</g>
</svg>
