<svg width="70" height="71" viewBox="0 0 70 71" fill="none" xmlns="http://www.w3.org/2000/svg">
<g id="chevron-left">
<path id="Vector" fill-rule="evenodd" clip-rule="evenodd" d="M19.5932 64.3757C19.3895 64.1725 19.2279 63.9312 19.1176 63.6654C19.0073 63.3996 18.9505 63.1147 18.9505 62.827C18.9505 62.5393 19.0073 62.2544 19.1176 61.9886C19.2279 61.7228 19.3895 61.4814 19.5932 61.2782L44.2988 36.577L19.5932 11.8758C19.1825 11.465 18.9517 10.9079 18.9517 10.327C18.9517 9.74611 19.1825 9.18901 19.5932 8.77825C20.004 8.3675 20.5611 8.13674 21.142 8.13674C21.7229 8.13674 22.28 8.3675 22.6907 8.77825L48.9407 35.0283C49.1444 35.2315 49.3061 35.4728 49.4163 35.7386C49.5266 36.0044 49.5834 36.2893 49.5834 36.577C49.5834 36.8647 49.5266 37.1496 49.4163 37.4154C49.3061 37.6812 49.1444 37.9226 48.9407 38.1258L22.6907 64.3757C22.4875 64.5795 22.2461 64.7411 21.9804 64.8514C21.7146 64.9616 21.4297 65.0184 21.142 65.0184C20.8542 65.0184 20.5693 64.9616 20.3036 64.8514C20.0378 64.7411 19.7964 64.5795 19.5932 64.3757Z" fill="#EAEAEA"/>
</g>
</svg>
