<svg width="21" height="20" viewBox="0 0 21 20" fill="none" xmlns="http://www.w3.org/2000/svg">
<g id="person-fill">
<path id="Vector" d="M3.96704 17.4996C3.96704 17.4996 2.71704 17.4996 2.71704 16.2496C2.71704 14.9996 3.96704 11.2496 10.217 11.2496C16.467 11.2496 17.717 14.9996 17.717 16.2496C17.717 17.4996 16.467 17.4996 16.467 17.4996H3.96704ZM10.217 9.99963C11.2116 9.99963 12.1654 9.60455 12.8687 8.90128C13.572 8.19802 13.967 7.2442 13.967 6.24963C13.967 5.25507 13.572 4.30124 12.8687 3.59798C12.1654 2.89472 11.2116 2.49963 10.217 2.49963C9.22248 2.49963 8.26865 2.89472 7.56539 3.59798C6.86213 4.30124 6.46704 5.25507 6.46704 6.24963C6.46704 7.2442 6.86213 8.19802 7.56539 8.90128C8.26865 9.60455 9.22248 9.99963 10.217 9.99963Z" fill="black"/>
</g>
</svg>
